<svg width="1194" height="239" viewBox="0 0 1194 239" fill="none" xmlns="http://www.w3.org/2000/svg">
<path d="M8.63604 147.636C5.12132 151.151 5.12132 156.849 8.63604 160.364C12.1508 163.879 17.8492 163.879 21.364 160.364L15 154L8.63604 147.636ZM162 16C162 11.0294 157.971 7.00001 153 7L72 7C67.0294 7.00001 63 11.0294 63 16C63 20.9706 67.0294 25 72 25L144 25L144 97C144 101.971 148.029 106 153 106C157.971 106 162 101.971 162 97L162 16ZM15 154L21.364 160.364L159.364 22.364L153 16L146.636 9.63604L8.63604 147.636L15 154Z" fill="black"/>
<path d="M220.364 91.364C223.879 87.8492 223.879 82.1508 220.364 78.636C216.849 75.1213 211.151 75.1213 207.636 78.636L214 85L220.364 91.364ZM67 223C67 227.971 71.0294 232 76 232L157 232C161.971 232 166 227.971 166 223C166 218.029 161.971 214 157 214L85 214L85 142C85 137.029 80.9706 133 76 133C71.0294 133 67 137.029 67 142L67 223ZM214 85L207.636 78.636L69.636 216.636L76 223L82.364 229.364L220.364 91.364L214 85Z" fill="black"/>
<path d="M456.311 196.777H409.04L382.284 151.983H305.135V196.554H265V41H384.959C402.574 41 417.29 45.0114 428.662 52.8114C442.932 62.6171 450.736 77.9943 450.736 96.4914C450.736 117.663 440.925 133.931 423.98 143.291L456.311 196.777ZM305.135 81.1143V111.869H384.959C410.601 111.869 410.601 101.617 410.601 96.4914C410.601 92.0343 410.601 81.1143 384.959 81.1143H305.135Z" fill="black"/>
<path d="M668.063 81.1143H532.273V98.9429H650.448V139.057H532.273V156.886H668.063V197H492.138V41H668.063V81.1143Z" fill="black"/>
<path d="M732.382 156.886H847.883L827.815 197H692.247V41.2229H732.382V156.886Z" fill="black"/>
<path d="M955.249 41.2229L1025.71 197H981.336L967.735 167.583L890.587 167.36L876.539 197H827.815L905.749 41.2229H955.249ZM909.093 127.469H950.343C950.343 127.469 949.369 92.3931 930.276 92C911 91.6032 909.093 127.469 909.093 127.469Z" fill="black"/>
<path d="M1194 41.2229L1116.85 141.509V197H1076.94V142.4L1000.01 41.2229H1050.85L1096.56 102.063L1142.94 41.2229H1194Z" fill="black"/>
</svg>
